<?xml version="1.0" encoding="UTF-8"?>
<!DOCTYPE svg PUBLIC "-//W3C//DTD SVG 1.1//EN" "http://www.w3.org/Graphics/SVG/1.1/DTD/svg11.dtd">
<svg version="1.1" xmlns="http://www.w3.org/2000/svg" xmlns:xlink="http://www.w3.org/1999/xlink" x="0px" y="0px" width="1728" height="864" viewBox="0, 0, 1728, 864">
  <g id="Layer 1">
    <path d="M144.5,864.5 C144.5,466.855 466.855,144.5 864.5,144.5 L864.5,0.5 L864.5,0.5 C387.326,0.5 0.5,387.326 0.5,864.5 L0.5,864.5 L144.5,864.5 z" fill-opacity="0" stroke="#000000" stroke-width="7"/>
    <path d="M1584.5,864.5 C1584.5,466.855 1262.145,144.5 864.5,144.5 L864.5,0.5 L864.5,0.5 C1341.674,0.5 1728.5,387.326 1728.5,864.5 L1728.5,864.5 L1584.5,864.5 z" fill-opacity="0" stroke="#000000" stroke-width="7"/>
    <path d="M1373.617,617.513 C1092.439,336.335 636.561,336.335 355.383,617.513 L253.56,515.689 L253.56,515.689 C590.973,178.276 1138.027,178.276 1475.44,515.69 L1475.44,515.69 L1373.617,617.513 z" fill-opacity="0" stroke="#000000" stroke-width="7"/>
    <path d="M1373.617,849.5 C1092.439,568.322 636.561,568.322 355.383,849.5 L253.56,747.676 L253.56,747.676 C590.973,410.263 1138.027,410.264 1475.44,747.677 L1475.44,747.677 L1373.617,849.5 z" fill-opacity="0" stroke="#000000" stroke-width="7"/>
  </g>
  <defs/>
</svg>
